<svg width="34" height="34" viewBox="0 0 34 34" fill="none" xmlns="http://www.w3.org/2000/svg">
<g clip-path="url(#clip0_524_175)">
<path d="M6.4435 11.63C6.83918 11.1213 7.1218 10.443 7.03702 9.76465C6.4435 9.79291 5.73693 10.1603 5.31299 10.6408C4.94558 11.0647 4.60643 11.7713 4.69121 12.4213C5.36952 12.5061 6.01956 12.1387 6.4435 11.63ZM7.03702 12.5909C6.07608 12.5344 5.25647 13.1279 4.80426 13.1279C4.35206 13.1279 3.64549 12.6192 2.8824 12.6192C1.89321 12.6474 0.988802 13.1844 0.480074 14.0888C-0.537382 15.8694 0.197448 18.4978 1.2149 19.9392C1.69537 20.6458 2.28889 21.4371 3.05198 21.4089C3.78681 21.3806 4.06943 20.9284 4.94558 20.9284C5.82172 20.9284 6.07608 21.4089 6.86744 21.3806C7.65879 21.3523 8.16752 20.674 8.64799 19.9392C9.21324 19.1196 9.43934 18.3282 9.43934 18.3C9.41108 18.2717 7.8849 17.7065 7.8849 15.9542C7.85663 14.4845 9.07193 13.7779 9.12845 13.7497C8.47841 12.7322 7.40443 12.6192 7.03702 12.5909Z" fill="black"/>
<path d="M15.3463 10.5845C17.4377 10.5845 18.8791 12.0259 18.8791 14.089C18.8791 16.1805 17.4095 17.6219 15.2898 17.6219H13.0005V21.2678H11.333V10.5845H15.3463ZM13.0005 16.237H14.8941C16.3355 16.237 17.1551 15.4457 17.1551 14.1173C17.1551 12.7607 16.3355 11.9976 14.8941 11.9976H12.9722V16.237H13.0005ZM19.3031 19.0915C19.3031 17.7349 20.3488 16.887 22.2141 16.774L24.3621 16.6609V16.0674C24.3621 15.1913 23.7686 14.6826 22.8077 14.6826C21.875 14.6826 21.3097 15.1348 21.1684 15.8131H19.6422C19.727 14.3999 20.9423 13.3542 22.8642 13.3542C24.7578 13.3542 25.9731 14.3434 25.9731 15.9261V21.296H24.4469V20.0242H24.4186C23.9664 20.9003 22.9772 21.4373 21.9598 21.4373C20.3771 21.4373 19.3031 20.4764 19.3031 19.0915ZM24.3621 18.385V17.7632L22.4402 17.8762C21.4793 17.9328 20.9423 18.3567 20.9423 19.035C20.9423 19.7133 21.5076 20.1655 22.3555 20.1655C23.486 20.1655 24.3621 19.4024 24.3621 18.385ZM27.3862 24.1788V22.8787C27.4993 22.907 27.7819 22.907 27.8949 22.907C28.6298 22.907 29.0254 22.5961 29.2798 21.8048C29.2798 21.7765 29.4211 21.3243 29.4211 21.3243L26.5949 13.5238H28.3189L30.2973 19.8829H30.3255L32.3039 13.5238H33.9997L31.0886 21.7482C30.4103 23.6418 29.6472 24.2353 28.0362 24.2353C27.9232 24.2071 27.5275 24.2071 27.3862 24.1788Z" fill="black"/>
</g>
<defs>
<clipPath id="clip0_524_175">
<rect width="34" height="34" fill="white"/>
</clipPath>
</defs>
</svg>
