<svg preserveAspectRatio="none" overflow="visible" style="display: block;" width="20.8882" height="18.9265" viewBox="0 0 20.8882 18.9265" fill="none" xmlns="http://www.w3.org/2000/svg">
<g id="download">
<path id="Vector 17" d="M20.1382 10.9059V18.1765H0.75V10.9059" stroke="white" stroke-width="1.5" stroke-linecap="round"/>
<path id="Arrow 6" d="M9.91379 13.8598C10.2067 14.1527 10.6816 14.1527 10.9744 13.8598L15.7474 9.08681C16.0403 8.79392 16.0403 8.31905 15.7474 8.02615C15.4545 7.73326 14.9797 7.73326 14.6868 8.02615L10.4441 12.2688L6.20148 8.02615C5.90858 7.73326 5.43371 7.73326 5.14082 8.02615C4.84792 8.31905 4.84792 8.79392 5.14082 9.08682L9.91379 13.8598ZM10.4441 4.30793e-05L9.69412 4.31175e-05L9.69412 13.3295L10.4441 13.3295L11.1941 13.3295L11.1941 4.3041e-05L10.4441 4.30793e-05Z" fill="white"/>
</g>
</svg>
