<svg preserveAspectRatio="none" overflow="visible" style="display: block;" width="31" height="32" viewBox="0 0 31 32" fill="none" xmlns="http://www.w3.org/2000/svg">
<g id="pomidor 1" clip-path="url(#clip0_0_40)">
<path id="Vector" d="M23.174 6.24885C21.2982 3.87711 18.4276 3.47773 17.2173 3.42243V0.522273C17.2173 0.233487 16.9765 0 16.6787 0H14.372C14.0742 0 13.8334 0.233487 13.8334 0.522273V3.42243C12.6104 3.47773 9.70176 3.87711 7.81971 6.24885C2.9213 8.3871 0 12.51 0 17.3149C0 25.1367 7.24305 32 15.5 32C23.757 32 31 25.1367 31 17.3149C31 12.51 28.0787 8.3871 23.1803 6.24885H23.174ZM14.3467 4.46083C14.5051 4.46083 14.6382 4.41782 14.7459 4.31951C14.8536 4.2212 14.9107 4.08602 14.9107 3.93856V1.04455H16.14V3.93856C16.14 4.07988 16.2034 4.2212 16.3111 4.31951C16.4188 4.41782 16.5646 4.46697 16.7103 4.46083C16.742 4.46083 19.1184 4.35637 21.0955 5.72657L18.472 5.14286C18.2375 5.0937 18.0031 5.19201 17.8827 5.38863C17.7623 5.58525 17.7939 5.83717 17.9524 6.00307C17.965 6.01536 18.7318 6.82642 19.5176 8.27035L17.4264 6.65438C17.2933 6.54992 17.1222 6.51306 16.9575 6.55607C16.7927 6.59908 16.6596 6.70968 16.5963 6.86329L15.5 9.44393L14.4037 6.86329C14.3404 6.70968 14.2073 6.59908 14.0425 6.55607C13.9982 6.54378 13.9538 6.53763 13.9094 6.53763C13.789 6.53763 13.6686 6.5745 13.5736 6.64823L11.4824 8.26421C12.2619 6.82028 13.035 6.00922 13.0476 5.99693C13.2061 5.83103 13.2377 5.57911 13.1173 5.38249C12.9969 5.18587 12.7625 5.08756 12.528 5.13671L9.91721 5.72043C11.907 4.35637 14.3213 4.45468 14.3467 4.45468V4.46083ZM15.5 30.9555C7.81971 30.9555 1.07727 24.5837 1.07727 17.3149C1.07727 12.8233 3.74509 9.11828 8.39002 7.13978C8.39002 7.13978 8.4027 7.13364 8.40904 7.1275L11.3177 6.47619C10.7917 7.24424 10.1327 8.36866 9.61304 9.80645C9.537 10.0276 9.61304 10.2673 9.80948 10.4025C10.0059 10.5376 10.2657 10.5315 10.4558 10.384L13.675 7.90169L14.9931 11.0108C15.0754 11.2074 15.2719 11.3364 15.4937 11.3364C15.7155 11.3364 15.9056 11.2074 15.9943 11.0108L17.3187 7.90169L20.5378 10.3902C20.7279 10.5376 20.9877 10.5438 21.1842 10.4086C21.3806 10.2734 21.4567 10.0276 21.3806 9.8126C20.861 8.38095 20.2083 7.25038 19.676 6.48233L22.5846 7.13364C22.5846 7.13364 22.5973 7.13978 22.6036 7.14593C27.2549 9.12442 29.9164 12.8295 29.9164 17.321C29.9164 24.5837 23.174 30.9616 15.4937 30.9616L15.5 30.9555Z" fill="#1D1D1B"/>
</g>
<defs>
<clipPath id="clip0_0_40">
<rect width="31" height="32" fill="white"/>
</clipPath>
</defs>
</svg>
