<svg preserveAspectRatio="none" overflow="visible" style="display: block;" width="28" height="40" viewBox="0 0 28 40" fill="none" xmlns="http://www.w3.org/2000/svg">
<g id="burak 1" clip-path="url(#clip0_0_62)">
<path id="Vector" d="M27.1727 5.91872C26.1125 4.83289 24.3966 4.79523 23.2445 5.81202C22.0801 5.41032 21.0199 5.54841 20.3764 6.21371C19.9597 6.64051 19.7514 7.2305 19.7636 7.92719C19.4021 7.88326 19.0711 7.91464 18.7586 7.9774C18.5809 7.54433 18.2867 7.13636 17.8516 6.79115C18.3419 6.30786 18.6054 5.7367 18.6054 5.13416C18.6054 4.19896 17.9558 3.33281 16.8527 2.7742C16.7424 1.23019 15.5045 0.00627648 13.9969 0.00627648C12.4894 0.00627648 11.2944 1.18625 11.1596 2.76793C10.0503 3.32653 9.39462 4.19896 9.39462 5.13416C9.39462 5.7367 9.65813 6.30786 10.1484 6.79115C9.7378 7.11753 9.44977 7.50039 9.27205 7.90836C8.97789 7.85815 8.62246 7.85815 8.23638 7.92092C8.24863 7.22423 8.04027 6.63424 7.62355 6.21371C6.98008 5.55468 5.9199 5.41032 4.75553 5.81202C4.2285 5.34756 3.56664 5.08395 2.86802 5.07767C2.10199 5.07767 1.3666 5.36639 0.827315 5.925C0.2819 6.47105 -0.0122565 7.21167 0 8.00879C0.00612826 8.6992 0.24513 9.35823 0.723134 9.92939C0.324798 11.1282 0.459619 12.2203 1.10921 12.8793C1.52594 13.3061 2.10812 13.5258 2.78223 13.507C2.67805 14.4108 2.89254 15.1954 3.40731 15.7163C3.83629 16.1557 4.43686 16.3816 5.13548 16.3816H5.14773C5.06807 17.1913 5.24579 17.888 5.65025 18.4215C3.89144 20.0408 2.81287 22.1622 2.81287 24.4908C2.81287 27.3654 4.41847 30.0141 7.21296 31.759C9.86649 33.4097 11.8582 35.6818 12.9858 38.3305L13.5741 39.7113C13.6476 39.887 13.8131 40 13.9969 40C14.1808 40 14.3462 39.887 14.4198 39.7113L15.0081 38.3305C16.1357 35.6818 18.1335 33.4097 20.7809 31.759C23.5754 30.0141 25.181 27.3654 25.181 24.4908C25.181 22.1622 24.1024 20.0408 22.3436 18.4215C22.7481 17.8942 22.9258 17.1976 22.8461 16.3816H22.8584C23.557 16.3816 24.1576 16.1557 24.5866 15.7163C25.1013 15.1891 25.3158 14.4045 25.2116 13.507C25.8551 13.5321 26.4741 13.3061 26.8847 12.8793C27.5281 12.2203 27.6691 11.1345 27.2769 9.94194C28.2635 8.76824 28.2329 7.01083 27.1727 5.91872ZM10.8593 10.1742C10.2955 9.77248 9.98906 9.28291 9.98906 8.79962C9.98906 8.23474 10.418 7.66358 11.1596 7.23678C11.3005 7.15519 11.3924 7.00455 11.3986 6.84136C11.3986 6.67817 11.325 6.52126 11.1902 6.42711C10.6325 6.05053 10.3261 5.59234 10.3261 5.13416C10.3261 4.51906 10.8777 3.91025 11.7969 3.51483C11.9746 3.43951 12.0788 3.19473 12.0727 3.00016C12.0727 1.87039 12.9429 0.954025 14.0031 0.954025C15.0633 0.954025 15.9335 1.87039 15.9396 2.9625L15.9273 3.06292C15.9212 3.25749 16.0315 3.43951 16.2092 3.51483C17.1285 3.91025 17.68 4.51906 17.68 5.13416C17.68 5.59234 17.3736 6.05053 16.8159 6.42711C16.6811 6.51498 16.6014 6.6719 16.6076 6.84136C16.6137 7.00455 16.7056 7.15519 16.8466 7.23678C17.5942 7.66358 18.0171 8.23474 18.0171 8.79962C18.0171 9.28291 17.7045 9.77248 17.1469 10.1742C17.0182 10.2683 16.9446 10.419 16.9446 10.5821C16.9446 10.7453 17.0366 10.8897 17.1714 10.9713C17.919 11.4295 18.3357 12.0132 18.3357 12.6157C18.3357 13.8459 16.6076 14.8941 14.4688 15.0259V3.21356C14.4688 2.94994 14.2605 2.73654 14.0031 2.73654C13.7457 2.73654 13.5373 2.94994 13.5373 3.21356V15.0322C11.4047 14.8941 9.67039 13.8522 9.67039 12.622C9.67039 12.0257 10.081 11.442 10.8348 10.9776C10.9696 10.896 11.0554 10.7453 11.0615 10.5884C11.0615 10.4252 10.9941 10.2746 10.8654 10.1804L10.8593 10.1742ZM5.63187 15.3836C4.95776 15.5092 4.40009 15.3836 4.06303 15.0447C3.67083 14.643 3.5789 13.9275 3.81177 13.0865C3.85467 12.9295 3.81178 12.7538 3.70147 12.6346C3.59116 12.5153 3.42569 12.4588 3.26636 12.4902C2.61677 12.6283 2.07748 12.5279 1.75881 12.2015C1.33596 11.7684 1.30532 10.9399 1.67914 9.99215C1.75268 9.81014 1.65463 9.55908 1.51981 9.42727C1.13986 9.03813 0.931495 8.52973 0.919238 7.98996C0.91311 7.45646 1.10921 6.95434 1.47078 6.58403C1.83235 6.21371 2.33487 6.01287 2.84351 6.01914C3.37054 6.02542 3.86693 6.2451 4.2285 6.60913L4.28978 6.68445C4.4246 6.82881 4.62683 6.87274 4.79842 6.79743C5.72379 6.40828 6.52659 6.43967 6.95557 6.87902C7.27424 7.2054 7.37229 7.75145 7.23747 8.42303C7.20683 8.58622 7.25585 8.75569 7.37842 8.86866C7.49486 8.98164 7.66645 9.02558 7.81965 8.97536C8.37733 8.81218 8.8063 8.8059 9.05143 8.83101C9.05756 9.4461 9.32721 10.0298 9.81747 10.5319C9.11272 11.1219 8.73276 11.8437 8.73276 12.6157C8.73276 13.915 9.81134 15.0196 11.4353 15.5908C9.4988 15.9611 7.7645 16.7456 6.355 17.8189C6.04246 17.3858 5.95666 16.7456 6.14664 15.9674C6.18341 15.8105 6.14664 15.6473 6.03633 15.528C5.93215 15.4088 5.77282 15.3585 5.61348 15.3836H5.63187ZM24.2618 24.4908C24.2618 27.0265 22.8216 29.3802 20.3029 30.943C17.49 32.6942 15.3635 35.1169 14.1624 37.9476L14.0031 38.3305L13.8437 37.9476C12.6426 35.1169 10.5161 32.6942 7.70322 30.943C5.19063 29.3739 3.74436 27.0265 3.74436 24.4908C3.74436 19.9718 8.34668 16.2937 14.0031 16.2937C19.6594 16.2937 24.2618 19.9718 24.2618 24.4908ZM26.4986 9.41472L26.425 9.47748C26.2841 9.61557 26.2412 9.82269 26.3147 9.99843C26.6947 10.9462 26.664 11.7684 26.2351 12.2078C25.9164 12.5341 25.3832 12.6346 24.7275 12.4965C24.5743 12.4651 24.4027 12.5153 24.2924 12.6346C24.1821 12.7538 24.1392 12.9295 24.1821 13.0865C24.415 13.9275 24.323 14.643 23.9308 15.0447C23.5938 15.3899 23.0361 15.5092 22.362 15.3836C22.2088 15.3523 22.0495 15.4088 21.9392 15.528C21.8288 15.6473 21.7921 15.8105 21.8288 15.9674C22.0188 16.7456 21.9392 17.3858 21.6205 17.8189C20.2171 16.7456 18.4767 15.9611 16.5402 15.5908C18.1641 15.0196 19.2427 13.915 19.2427 12.6157C19.2427 11.8437 18.8628 11.1219 18.158 10.5319C18.636 10.0486 18.8995 9.47748 18.9179 8.88749C19.2672 8.81218 19.6901 8.84356 20.1558 8.97536C20.3152 9.0193 20.4806 8.97536 20.5971 8.86239C20.7135 8.74941 20.7687 8.57995 20.7319 8.41676C20.5971 7.74517 20.6951 7.19912 21.0138 6.87274C21.4428 6.43967 22.2456 6.40828 23.1709 6.79115C23.3487 6.86647 23.5877 6.77232 23.7225 6.62796C24.5008 5.83085 25.7509 5.81202 26.4986 6.58403C27.2524 7.35603 27.234 8.63016 26.4802 9.40844L26.4986 9.41472Z" fill="#1D1D1B"/>
</g>
<defs>
<clipPath id="clip0_0_62">
<rect width="28" height="40" fill="white"/>
</clipPath>
</defs>
</svg>
